<svg width="269" height="150" viewBox="0 0 269 150" fill="none" xmlns="http://www.w3.org/2000/svg">
<g clip-path="url(#clip0_45_463)">
<path d="M108.99 85.1083C108.99 85.1083 161.003 65.8607 195.373 68.6103C195.373 68.6103 232.748 67.4581 234.996 98.6208C234.996 98.6208 236.407 106.87 231.102 111.295C231.102 111.295 222.686 101.266 207.605 101.397C207.369 101.397 205.671 101.24 203.057 101.24C200.678 101.24 198.692 101.37 198.509 101.37C195.765 101.213 177.129 103.151 132.252 108.624C132.252 108.624 118.452 102.837 108.99 85.1083Z" fill="#DADADA"/>
<path d="M0.0522675 93.5143C-1.38526 126.798 30.0312 126.615 37.9506 126.432C40.3552 126.379 46.4974 125.829 49.0065 125.725C97.5948 123.499 132.252 108.624 132.252 108.624L119.837 81.442C117.354 82.6728 114.793 83.9036 112.127 85.0821C103.24 89.0625 94.6936 92.1526 86.6696 94.5618C78.5934 96.2902 71.2751 97.7305 64.7931 98.9613C64.6886 98.9613 64.9238 98.9613 64.7931 98.9613C53.3452 100.297 48.7974 101.685 40.7473 102.025C36.1995 102.235 34.579 101.685 33.246 100.716C33.246 100.716 30.6585 98.8303 29.7437 94.3523C27.6527 83.956 54.4952 48.1058 55.8021 46.3251C55.8021 46.3251 63.4079 34.698 70.9614 46.4036C70.9614 46.4036 66.1261 0.497559 31.9392 24.9564L8.67741 68.3223C4.75689 75.7594 0.418183 85.0297 0.0522675 93.5143Z" fill="#DADADA"/>
<path d="M195.373 68.6103C195.373 68.6103 231.258 69.265 234.133 97.5471C234.447 97.8876 238.969 120.33 193.177 117.79C191.165 117.685 189.152 117.528 187.14 117.502C175.613 117.24 142.733 114.097 127.521 92.5192C126.868 91.6026 126.371 90.817 126.084 90.3195C102.639 58.4759 94.2232 32.2626 85.781 15.398C85.7549 15.3195 85.7026 15.2671 85.6764 15.1885C76.7115 -2.59253 51.8554 -5.47312 39.7279 10.3177C36.1472 14.979 24.83 36.2954 21.6935 44.492C21.6935 44.492 50.5747 9.5583 67.8511 40.0401C67.8511 40.0401 98.6926 104.487 116.439 122.503C116.439 122.503 154.259 160.894 227.782 146.936C236.799 145.234 245.503 141.646 252.9 135.911C262.204 128.71 271.561 116.978 268.373 100.061C267.641 96.2116 265.864 92.5978 263.198 89.7172C256.062 81.992 237.374 68.1913 195.373 68.5841V68.6103Z" fill="#EDEDED"/>
</g>
<defs>
<clipPath id="clip0_45_463">
<rect width="269" height="150" fill="white"/>
</clipPath>
</defs>
</svg>
